<svg width="512" height="512" viewBox="0 0 512 512" fill="none" xmlns="http://www.w3.org/2000/svg">
<rect width="512" height="512" fill="#00A86F"/>
<g filter="url(#filter0_n_8_227)">
<path d="M98 224L102 201L130 168.5L180.5 140L216.5 127L299 160.5L327.5 184.5L339 235L383 213.5L441.5 184.5L449.5 266L441.5 307.5L424 297L403.5 292.5L339 277.5V328L244 397.5L139.5 367.5L102 349L98 224Z" fill="white"/>
<path d="M416.352 299.897C409.521 297.539 402.576 297.052 395.669 296.173C385.453 294.872 375.11 293.676 365.521 289.739C359.405 287.228 353.29 284.743 347.163 282.324C346.89 282.645 346.596 282.829 346.593 283.017C346.467 290.714 345.512 298.525 346.515 306.076C347.438 313.031 345.857 318.589 341.9 323.905C340.448 325.856 339.002 327.817 337.446 329.685C329.46 339.275 319.972 347.293 310.505 355.352C296.058 367.65 281.365 379.649 266.665 391.641C261.404 395.932 256.087 400.239 249.164 401.73C243.434 402.965 237.822 401.981 232.191 400.98C213.748 397.701 195.522 393.504 177.808 387.392C163.685 382.518 149.577 377.535 135.873 371.578C126.634 367.562 117.842 362.543 109.258 357.28C101.863 352.745 97.8722 345.807 97.4265 337.06C96.5444 319.746 95.8206 302.424 94.8444 285.116C94.24 274.401 93.5867 263.686 94.018 252.962C94.4786 241.509 95.308 230.072 96.3275 218.649C96.8408 212.898 97.1509 207.126 97.3985 201.357C97.4841 199.364 98.1427 197.947 99.6189 196.569C106.121 190.5 112.09 183.89 118.746 177.963C135.331 163.197 153.667 150.958 173.117 140.348C186.094 133.268 199.354 126.749 213.124 121.286C218.799 119.035 224.297 118.957 230.044 120.884C244.49 125.729 258.447 131.688 271.995 138.636C286.499 146.075 300.953 153.599 314.36 162.933C318.77 166.003 323.145 169.12 327.287 172.556C335.047 178.993 339.177 187.251 340.437 197.189C341.392 204.726 342.792 212.209 344.022 219.711C344.113 220.27 344.426 220.793 344.695 221.484C347.627 221.238 349.844 219.539 351.577 217.632C359.636 208.759 370.217 203.709 380.607 198.469C392.371 192.535 404.133 186.597 415.877 180.624C421.927 177.547 427.978 174.426 434.267 171.806C439.854 169.478 447.715 173.232 449.36 179.136C452.729 191.236 453.947 203.607 454.565 216.107C454.907 223.051 454.71 229.979 454.787 236.912C454.885 245.702 454.098 254.475 453.254 263.218C452.314 272.955 451.104 282.668 449.88 292.374C449.369 296.423 448.679 300.391 446.357 304.022C443.042 309.207 434.059 309.028 429.946 306.205C425.835 303.382 421.356 301.304 416.352 299.897ZM364.59 271.684C370.406 273.376 375.849 276.116 381.618 277.89C390.037 280.48 398.415 283.21 406.855 285.708C412.804 287.47 418.572 289.842 424.704 291.027C428.143 291.691 431.749 291.372 435.037 293.02C437.442 294.225 437.842 293.845 437.982 291.079C438.376 283.293 438.234 275.503 438.311 267.714C438.542 244.071 438.329 220.43 438.45 196.789C438.455 195.707 438.001 195.016 437.31 194.18C433.932 190.099 426.167 189.981 422.397 192.307C419.756 193.936 417.304 195.926 414.535 197.282C406.515 201.207 399.166 206.252 391.593 210.892C378.139 219.137 364.464 227.013 351.043 235.309C346.929 237.853 342.595 238.372 338.038 236.515C336.466 235.875 335.663 234.807 335.537 233.102C334.737 222.242 333.139 211.501 330.423 200.948C329.556 197.581 328.839 194.141 327.197 190.75C326.207 191.282 325.402 191.691 324.619 192.137C319.106 195.285 314.49 199.61 309.683 203.657C298.202 213.321 285.726 221.834 275.569 233.043C273.323 235.52 270.755 237.727 268.198 239.899C262.187 245.005 256.193 250.141 249.988 255.006C247.062 257.3 246.47 260.254 246.701 263.437C247.437 273.565 246.981 283.711 247.466 293.847C248.107 307.236 248.15 320.653 248.483 334.057C248.843 348.547 249.211 363.037 249.65 377.526C249.728 380.104 249.968 382.71 251.273 385.064C252.125 386.602 253.225 387.097 254.754 386.002C256.186 384.977 257.65 383.987 259.009 382.87C282.034 363.937 304.443 344.281 327.227 325.065C328.572 323.931 329.883 322.724 331.033 321.4C335.109 316.71 337.135 311.403 335.432 305.16C335 303.578 334.892 301.994 335.1 300.429C336.209 292.11 336.447 283.745 336.522 275.371C336.536 273.837 337.033 272.589 338.098 271.543C340.696 268.99 343.882 267.426 347.45 268.136C353.04 269.248 358.787 269.631 364.59 271.684ZM104.341 240.312C104.468 246.425 104.313 252.53 104.68 258.653C105.577 273.611 106.18 288.587 106.787 303.56C107.241 314.775 107.483 325.998 107.884 337.215C108.063 342.255 110.117 346.074 114.817 348.59C130.986 357.243 147.528 364.961 165.118 370.371C173.928 373.081 182.288 377.423 191.451 378.784C203.395 380.559 214.922 383.545 226.119 387.998C229.435 389.316 233.013 389.323 236.562 389.181C237.826 389.13 238.66 388.838 238.683 387.356C238.727 384.595 239.463 381.866 239.16 379.09C238.286 371.071 238.709 363.011 238.4 354.973C237.791 339.148 237.577 323.305 237.344 307.468C237.167 295.396 237.26 283.321 237.13 271.249C237.088 267.403 236.519 263.59 235.661 259.825C235.331 258.376 234.61 257.645 233.071 257.661C232.334 257.668 231.59 257.434 230.857 257.27C225.461 256.062 220.629 253.541 215.867 250.853C203.729 244.001 191.702 236.922 178.782 231.585C158.442 223.183 137.491 216.484 116.615 209.583C113.849 208.669 111.038 207.893 108.058 206.996C107.28 210.162 106.594 213.077 106.341 216.078C105.674 223.998 105.017 231.918 104.341 240.312ZM190.895 143.554C168.136 155.156 146.867 168.994 127.511 185.681C124.462 188.31 121.526 191.08 118.685 193.932C116.027 196.601 116.512 198.701 120.033 199.861C122.411 200.645 124.932 200.99 127.341 201.692C155.591 209.925 183.271 219.646 209.498 233.132C218.602 237.813 227.4 243.077 236.934 246.934C239.741 248.07 241.544 247.696 243.809 245.698C266.792 225.44 289.885 205.306 312.943 185.131C314.434 183.827 315.882 182.474 317.435 181.067C314.858 178.091 312.036 175.855 309.019 173.885C286.045 158.882 261.857 146.144 236.563 135.5C228.549 132.128 220.319 131.384 212.013 134.381C204.901 136.947 197.99 140 190.895 143.554Z" fill="black"/>
<path d="M285.905 341.98C283.687 347.64 280.834 352.572 274.523 353.926C269.315 355.043 264.302 353.976 259.784 351.216C256.493 349.205 255.724 345.738 255.069 342.182C253.487 333.596 255.943 326.089 261.231 319.489C265.885 313.68 271.891 313.188 277.859 317.647C285.324 323.224 288.468 332.605 285.905 341.98ZM265.32 338.887C266.703 343.112 269.03 343.962 272.332 341.222C275.318 338.746 276.56 335.402 275.903 331.572C275.388 328.568 271.9 327.195 269.339 328.866C265.845 331.145 264.896 334.537 265.32 338.887Z" fill="black"/>
<path d="M311.572 247.48C302.547 246.362 296.322 239.285 295.888 229.497C295.636 223.808 297.964 218.817 303.054 215.674C307.853 212.713 312.891 211.915 318.023 214.984C324.296 218.735 327.875 228.42 324.413 234.671C322.833 237.523 321.408 240.454 319.546 243.145C317.665 245.866 315.18 247.487 311.572 247.48ZM306.904 228.968C306.466 231.875 308.165 234.891 310.348 235.078C312.265 235.243 314.032 233.036 314.335 230.068C314.403 229.403 314.488 228.723 314.424 228.063C314.259 226.363 313.54 224.912 311.783 224.474C310.13 224.062 308.823 224.893 307.976 226.304C307.554 227.008 307.334 227.832 306.904 228.968Z" fill="black"/>
<path d="M122.285 262.609C116.428 258.144 116.133 252.037 116.771 245.687C117.057 242.834 118.11 240.163 119.386 237.612C124.015 228.359 135.027 226.022 143.246 232.492C148.261 236.439 150.233 241.943 151.208 247.935C151.738 251.197 151.402 254.416 150.373 257.575C148.506 263.313 143.653 267.119 137.618 267.183C132.139 267.24 126.992 265.907 122.285 262.609ZM139.831 249.275C138.508 247.152 137.261 244.978 135.845 242.918C134.08 240.351 130.942 240.195 128.785 242.454C125.252 246.153 126.659 252.922 131.373 254.908C135.213 256.525 140.213 253.441 139.831 249.275Z" fill="black"/>
<path d="M197.462 293.23C195.762 291.461 194.917 289.459 194.626 287.261C193.609 279.583 194.032 272.192 199.263 265.851C202.743 261.633 205.817 261.058 210.785 263.328C219.564 267.34 224.176 274.144 224.927 283.669C224.972 284.248 225.165 284.815 225.258 285.392C226.232 291.39 223.511 295.419 217.592 296.981C212.199 298.404 206.952 297.793 201.763 296.094C200.146 295.565 198.741 294.636 197.462 293.23ZM211.361 276.111C208.765 273.199 206.745 273.655 205.334 277.239C204.324 279.804 205.209 281.826 206.626 283.774C207.665 285.203 209.103 285.57 210.865 285.082C212.627 284.594 213.258 283.392 213.426 281.772C213.639 279.705 212.586 278.068 211.361 276.111Z" fill="black"/>
<path d="M117.298 316.564C119.851 309.738 125.194 307.093 133.025 308.636C141.473 310.3 148.995 319.367 148.679 327.785C148.537 331.561 147.368 335.18 145.807 338.625C145.022 340.358 143.592 341.55 141.889 342.391C135.294 345.647 126.581 344.263 121.307 339.155C119.062 336.981 117.743 334.246 116.985 331.333C115.723 326.491 115.659 321.586 117.298 316.564ZM137.643 325.065C137.359 324.28 137.136 323.467 136.779 322.717C135.602 320.247 132.448 318.112 130.515 318.422C128.265 318.782 126.408 321.252 126.243 324.541C126.117 327.043 126.938 329.296 128.922 331.015C131.34 333.112 134.684 332.762 136.644 330.214C137.746 328.782 137.908 327.167 137.643 325.065Z" fill="black"/>
<path d="M193.997 358.949C192.387 355.14 191.913 351.314 192.395 347.458C193.155 341.376 199.008 335.281 205.083 333.963C206.501 333.655 207.902 333.84 209.306 334.231C217.624 336.549 225.253 345.339 226.343 353.908C227.215 360.766 224.012 365.443 217.176 366.888C211.819 368.02 206.485 367.548 201.333 365.703C198.047 364.525 195.556 362.349 193.997 358.949ZM209.773 356.537C213.99 356.144 215.681 352.963 213.669 349.276C212.395 346.942 210.389 345.542 207.999 344.542C206.693 343.995 205.759 344.372 204.898 345.386C203.05 347.563 202.01 350.009 203.092 352.785C204.16 355.523 206.492 356.556 209.773 356.537Z" fill="black"/>
<path d="M211.241 170.437C219.013 168.873 226.39 169.728 233.504 172.635C235.398 173.409 236.607 175.143 237.505 177.002C242.664 187.685 240.063 196.437 230.27 203.526C220.717 210.441 205.121 204.45 202.063 193.082C199.918 185.105 203.858 175.223 211.241 170.437ZM213.309 185.576C211.632 191.068 213.731 193.981 219.453 194.081C220.124 194.092 220.796 194.029 221.466 193.987C225.543 193.733 228.135 191.036 228.557 186.613C228.846 183.573 227.226 181.845 222.993 180.678C216.689 178.941 216.145 179.198 213.309 185.576Z" fill="black"/>
</g>
<defs>
<filter id="filter0_n_8_227" x="30" y="95" width="452" height="322" filterUnits="userSpaceOnUse" color-interpolation-filters="sRGB">
<feFlood flood-opacity="0" result="BackgroundImageFix"/>
<feBlend mode="normal" in="SourceGraphic" in2="BackgroundImageFix" result="shape"/>
<feTurbulence type="fractalNoise" baseFrequency="10 10" stitchTiles="stitch" numOctaves="3" result="noise" seed="7459" />
<feColorMatrix in="noise" type="luminanceToAlpha" result="alphaNoise" />
<feComponentTransfer in="alphaNoise" result="coloredNoise1">
<feFuncA type="discrete" tableValues="1 1 1 1 1 1 1 1 1 1 1 1 1 1 1 1 1 1 1 1 1 1 1 1 1 1 1 1 1 1 1 1 1 1 1 1 1 1 1 1 1 1 1 1 1 1 1 1 1 1 1 0 0 0 0 0 0 0 0 0 0 0 0 0 0 0 0 0 0 0 0 0 0 0 0 0 0 0 0 0 0 0 0 0 0 0 0 0 0 0 0 0 0 0 0 0 0 0 0 0 "/>
</feComponentTransfer>
<feComposite operator="in" in2="shape" in="coloredNoise1" result="noise1Clipped" />
<feFlood flood-color="rgba(217, 217, 217, 0.25)" result="color1Flood" />
<feComposite operator="in" in2="noise1Clipped" in="color1Flood" result="color1" />
<feMerge result="effect1_noise_8_227">
<feMergeNode in="shape" />
<feMergeNode in="color1" />
</feMerge>
</filter>
</defs>
</svg>
