<svg width="512" height="512" viewBox="0 0 512 512" fill="none" xmlns="http://www.w3.org/2000/svg">
<g clip-path="url(#clip0_8_227)">
<rect width="512" height="512" fill="#00A86F"/>
<g filter="url(#filter0_n_8_227)">
<path d="M18.0708 212.671L23.4867 181.528L61.3982 137.522L129.774 98.9317L178.518 81.3292L290.221 126.689L328.81 159.186L344.381 227.565L403.956 198.453L483.164 159.186L493.996 269.54L483.164 325.733L459.469 311.516L431.712 305.422L344.381 285.112V353.491L215.752 447.596L74.2611 406.975L23.4867 381.925L18.0708 212.671Z" fill="white"/>
<path d="M449.114 315.438C439.864 312.246 430.461 311.586 421.109 310.395C407.276 308.634 393.272 307.015 380.289 301.684C372.008 298.284 363.729 294.919 355.433 291.644C355.064 292.078 354.666 292.327 354.662 292.582C354.491 303.004 353.197 313.58 354.555 323.805C355.806 333.222 353.664 340.748 348.307 347.946C346.341 350.588 344.384 353.243 342.277 355.772C331.463 368.758 318.617 379.614 305.799 390.526C286.238 407.179 266.343 423.426 246.44 439.663C239.317 445.474 232.118 451.304 222.744 453.324C214.986 454.996 207.388 453.664 199.763 452.308C174.791 447.868 150.113 442.185 126.13 433.909C107.007 427.311 87.9049 420.563 69.3507 412.497C56.8405 407.058 44.9359 400.263 33.3137 393.136C23.3014 386.997 17.8978 377.603 17.2943 365.758C16.1 342.315 15.1199 318.86 13.7981 295.424C12.9799 280.916 12.0952 266.407 12.6792 251.887C13.3029 236.378 14.4259 220.892 15.8063 205.425C16.5013 197.639 16.9212 189.823 17.2564 182.011C17.3723 179.312 18.264 177.394 20.2628 175.528C29.0668 167.31 37.1478 158.36 46.1608 150.335C68.6162 130.342 93.4428 113.77 119.778 99.4024C137.349 89.816 155.302 80.9897 173.947 73.5928C181.631 70.5444 189.074 70.4388 196.855 73.0483C216.415 79.608 235.313 87.6767 253.657 97.0851C273.295 107.158 292.865 117.345 311.019 129.983C316.99 134.14 322.913 138.361 328.522 143.014C339.028 151.73 344.621 162.911 346.326 176.367C347.619 186.574 349.515 196.705 351.18 206.864C351.304 207.62 351.727 208.328 352.092 209.264C356.061 208.931 359.064 206.631 361.41 204.048C372.321 192.034 386.648 185.196 400.715 178.1C416.644 170.066 432.569 162.026 448.471 153.938C456.662 149.772 464.855 145.545 473.371 141.998C480.936 138.846 491.579 143.928 493.806 151.924C498.368 168.307 500.017 185.058 500.853 201.984C501.317 211.385 501.049 220.767 501.154 230.154C501.287 242.056 500.221 253.935 499.078 265.774C497.805 278.958 496.167 292.109 494.51 305.252C493.819 310.735 492.884 316.107 489.74 321.024C485.252 328.044 473.088 327.802 467.52 323.979C461.953 320.158 455.889 317.344 449.114 315.438ZM379.029 277.236C386.904 279.528 394.274 283.237 402.084 285.64C413.483 289.147 424.827 292.843 436.256 296.226C444.31 298.611 452.119 301.824 460.422 303.428C465.079 304.327 469.961 303.895 474.413 306.126C477.669 307.758 478.211 307.243 478.401 303.498C478.934 292.956 478.742 282.407 478.845 271.861C479.159 239.848 478.87 207.837 479.033 175.826C479.041 174.361 478.426 173.425 477.49 172.294C472.917 166.767 462.403 166.608 457.299 169.758C453.723 171.964 450.403 174.658 446.654 176.493C435.794 181.808 425.844 188.64 415.591 194.923C397.374 206.086 378.858 216.75 360.687 227.984C355.116 231.428 349.248 232.131 343.078 229.617C340.95 228.749 339.862 227.304 339.692 224.996C338.608 210.291 336.445 195.746 332.767 181.457C331.593 176.899 330.623 172.24 328.4 167.65C327.059 168.369 325.969 168.923 324.909 169.528C317.444 173.79 311.194 179.646 304.685 185.125C289.141 198.212 272.248 209.738 258.496 224.915C255.456 228.27 251.978 231.258 248.516 234.198C240.377 241.112 232.261 248.067 223.86 254.654C219.898 257.76 219.096 261.76 219.409 266.07C220.406 279.783 219.788 293.522 220.445 307.247C221.312 325.376 221.371 343.543 221.822 361.692C222.31 381.312 222.808 400.933 223.402 420.55C223.508 424.041 223.833 427.57 225.6 430.758C226.754 432.841 228.243 433.51 230.312 432.028C232.251 430.64 234.235 429.299 236.074 427.787C267.25 402.151 297.591 375.536 328.441 349.516C330.261 347.98 332.036 346.347 333.594 344.554C339.112 338.203 341.856 331.018 339.549 322.564C338.965 320.422 338.818 318.278 339.101 316.159C340.602 304.894 340.924 293.568 341.026 282.23C341.044 280.151 341.717 278.462 343.159 277.046C346.677 273.588 350.99 271.471 355.822 272.433C363.39 273.938 371.172 274.457 379.029 277.236ZM26.6569 234.758C26.829 243.035 26.619 251.302 27.1158 259.592C28.3294 279.845 29.147 300.124 29.9678 320.398C30.5825 335.583 30.911 350.78 31.4529 365.968C31.6964 372.792 34.4765 377.964 40.8406 381.37C62.7329 393.087 85.1304 403.538 108.947 410.863C120.876 414.532 132.195 420.412 144.602 422.255C160.773 424.657 176.381 428.701 191.541 434.73C196.031 436.515 200.876 436.524 205.681 436.332C207.393 436.263 208.522 435.867 208.554 433.861C208.612 430.123 209.609 426.427 209.199 422.668C208.016 411.811 208.589 400.898 208.17 390.014C207.345 368.585 207.056 347.134 206.74 325.689C206.5 309.344 206.627 292.994 206.45 276.648C206.394 271.44 205.624 266.277 204.462 261.179C204.014 259.217 203.039 258.227 200.955 258.249C199.957 258.259 198.949 257.941 197.957 257.719C190.65 256.084 184.108 252.671 177.66 249.031C161.226 239.753 144.941 230.167 127.448 222.941C99.9088 211.565 71.5407 202.494 43.2746 193.15C39.5305 191.912 35.7242 190.861 31.6894 189.647C30.6362 193.934 29.7069 197.88 29.3644 201.944C28.4607 212.668 27.5718 223.393 26.6569 234.758ZM143.849 103.743C113.034 119.453 84.2363 138.19 58.0282 160.786C53.9005 164.345 49.9244 168.096 46.0785 171.958C42.4787 175.571 43.1359 178.415 47.9026 179.986C51.1232 181.047 54.5358 181.514 57.7986 182.465C96.0474 193.612 133.526 206.776 169.038 225.036C181.363 231.374 193.276 238.501 206.185 243.725C209.986 245.263 212.426 244.756 215.494 242.051C246.612 214.62 277.88 187.358 309.099 160.041C311.118 158.274 313.08 156.443 315.181 154.538C311.693 150.508 307.871 147.48 303.787 144.813C272.68 124.499 239.931 107.251 205.682 92.839C194.831 88.273 183.689 87.2657 172.442 91.3236C162.813 94.7976 153.455 98.932 143.849 103.743Z" fill="black"/>
<path d="M272.491 372.42C269.488 380.084 265.625 386.762 257.079 388.595C250.028 390.108 243.24 388.664 237.123 384.926C232.668 382.204 231.626 377.509 230.739 372.693C228.598 361.068 231.923 350.903 239.083 341.966C245.384 334.101 253.516 333.435 261.597 339.472C271.705 347.023 275.961 359.726 272.491 372.42ZM244.62 368.233C246.491 373.952 249.642 375.103 254.114 371.394C258.156 368.041 259.838 363.513 258.949 358.327C258.252 354.259 253.528 352.401 250.061 354.663C245.33 357.75 244.046 362.342 244.62 368.233Z" fill="black"/>
<path d="M307.244 244.463C295.024 242.95 286.596 233.367 286.008 220.115C285.666 212.411 288.818 205.653 295.711 201.398C302.208 197.387 309.029 196.307 315.978 200.463C324.471 205.542 329.318 218.656 324.63 227.12C322.491 230.982 320.561 234.95 318.041 238.594C315.493 242.278 312.129 244.473 307.244 244.463ZM300.923 219.398C300.33 223.334 302.631 227.418 305.586 227.671C308.182 227.894 310.574 224.906 310.984 220.888C311.076 219.986 311.192 219.065 311.105 218.172C310.881 215.871 309.909 213.906 307.529 213.313C305.291 212.755 303.521 213.879 302.375 215.791C301.804 216.744 301.505 217.86 300.923 219.398Z" fill="black"/>
<path d="M50.9525 264.949C43.0219 258.903 42.6228 250.634 43.4861 242.035C43.8739 238.173 45.2987 234.556 47.0271 231.102C53.2949 218.574 68.2046 215.408 79.3335 224.169C86.1236 229.514 88.7935 236.966 90.113 245.079C90.8314 249.497 90.3755 253.855 88.9831 258.133C86.4546 265.903 79.8835 271.056 71.7133 271.142C64.2947 271.22 57.3248 269.414 50.9525 264.949ZM74.7087 246.894C72.9184 244.019 71.229 241.075 69.3123 238.287C66.9222 234.81 62.6736 234.599 59.7532 237.658C54.9697 242.667 56.8743 251.833 63.2574 254.521C68.4564 256.711 75.2269 252.535 74.7087 246.894Z" fill="black"/>
<path d="M152.741 306.41C150.439 304.016 149.294 301.304 148.9 298.329C147.523 287.932 148.097 277.924 155.179 269.338C159.891 263.627 164.054 262.848 170.779 265.922C182.667 271.355 188.911 280.567 189.927 293.465C189.989 294.249 190.249 295.016 190.376 295.798C191.695 303.92 188.011 309.375 179.996 311.49C172.695 313.417 165.59 312.589 158.564 310.289C156.375 309.573 154.472 308.315 152.741 306.41ZM171.559 283.231C168.045 279.288 165.309 279.906 163.399 284.759C162.032 288.232 163.23 290.97 165.149 293.607C166.556 295.542 168.502 296.039 170.889 295.378C173.274 294.717 174.129 293.09 174.355 290.896C174.644 288.098 173.219 285.881 171.559 283.231Z" fill="black"/>
<path d="M44.1999 338.007C47.6565 328.764 54.8913 325.182 65.494 327.271C76.9321 329.524 87.1178 341.801 86.6891 353.199C86.4968 358.313 84.9139 363.212 82.8013 367.877C81.7382 370.224 79.8011 371.838 77.4956 372.976C68.5667 377.385 56.7684 375.511 49.6278 368.595C46.589 365.652 44.8027 361.948 43.7756 358.004C42.0681 351.448 41.9807 344.806 44.1999 338.007ZM71.7474 349.516C71.3622 348.454 71.0602 347.353 70.5766 346.338C68.9837 342.993 64.7134 340.102 62.096 340.521C59.0492 341.009 56.5348 344.353 56.3107 348.807C56.1404 352.195 57.2528 355.246 59.9382 357.574C63.2132 360.413 67.7398 359.939 70.3946 356.488C71.8861 354.549 72.1052 352.363 71.7474 349.516Z" fill="black"/>
<path d="M148.049 395.397C145.869 390.239 145.228 385.059 145.88 379.837C146.909 371.602 154.834 363.349 163.059 361.565C164.979 361.148 166.876 361.398 168.777 361.928C180.039 365.066 190.369 376.968 191.844 388.571C193.025 397.857 188.689 404.189 179.432 406.146C172.18 407.679 164.958 407.041 157.982 404.541C153.532 402.947 150.16 400.001 148.049 395.397ZM169.41 392.13C175.119 391.599 177.409 387.292 174.685 382.299C172.96 379.139 170.244 377.243 167.007 375.889C165.239 375.149 163.974 375.659 162.809 377.032C160.307 379.98 158.898 383.291 160.364 387.051C161.809 390.757 164.966 392.156 169.41 392.13Z" fill="black"/>
<path d="M171.397 140.145C181.92 138.026 191.909 139.185 201.541 143.121C204.106 144.169 205.743 146.517 206.958 149.033C213.943 163.499 210.422 175.35 197.163 184.948C184.227 194.311 163.11 186.199 158.97 170.806C156.065 160.005 161.401 146.624 171.397 140.145ZM174.197 160.643C171.927 168.08 174.769 172.023 182.517 172.159C183.424 172.175 184.334 172.089 185.242 172.032C190.762 171.688 194.271 168.036 194.842 162.048C195.234 157.932 193.041 155.592 187.309 154.012C178.774 151.659 178.038 152.007 174.197 160.643Z" fill="black"/>
</g>
</g>
<defs>
<filter id="filter0_n_8_227" x="-74" y="38" width="612" height="436" filterUnits="userSpaceOnUse" color-interpolation-filters="sRGB">
<feFlood flood-opacity="0" result="BackgroundImageFix"/>
<feBlend mode="normal" in="SourceGraphic" in2="BackgroundImageFix" result="shape"/>
<feTurbulence type="fractalNoise" baseFrequency="10 10" stitchTiles="stitch" numOctaves="3" result="noise" seed="7459" />
<feColorMatrix in="noise" type="luminanceToAlpha" result="alphaNoise" />
<feComponentTransfer in="alphaNoise" result="coloredNoise1">
<feFuncA type="discrete" tableValues="1 1 1 1 1 1 1 1 1 1 1 1 1 1 1 1 1 1 1 1 1 1 1 1 1 1 1 1 1 1 1 1 1 1 1 1 1 1 1 1 1 1 1 1 1 1 1 1 1 1 1 0 0 0 0 0 0 0 0 0 0 0 0 0 0 0 0 0 0 0 0 0 0 0 0 0 0 0 0 0 0 0 0 0 0 0 0 0 0 0 0 0 0 0 0 0 0 0 0 0 "/>
</feComponentTransfer>
<feComposite operator="in" in2="shape" in="coloredNoise1" result="noise1Clipped" />
<feFlood flood-color="rgba(217, 217, 217, 0.25)" result="color1Flood" />
<feComposite operator="in" in2="noise1Clipped" in="color1Flood" result="color1" />
<feMerge result="effect1_noise_8_227">
<feMergeNode in="shape" />
<feMergeNode in="color1" />
</feMerge>
</filter>
<clipPath id="clip0_8_227">
<rect width="512" height="512" fill="white"/>
</clipPath>
</defs>
</svg>
